{"title":"Big Boss - Season 4 - 5th Nov 2010 - Ind","uid":5936470,"size":435404800,"categoryP":"video","categoryS":"tv_shows","magnet":"?xt=urn:btih:468142522a57a3020611e49ed0b68ad90919b5d9&amp;dn=Big+Boss+-+Season+4+-+5th+Nov+2010+-+Ind&amp;tr=udp%3A%2F%2Ftracker.openbittorrent.com%3A80&amp;tr=udp%3A%2F%2Fopen.demonii.com%3A1337&amp;tr=udp%3A%2F%2Ftracker.coppersurfer.tk%3A6969&amp;tr=udp%3A%2F%2Fexodus.desync.com%3A6969","seeders":0,"leechers":0,"uploader":"DibyaTPB","files":1,"time":1288984410,"description":" &lt;a href=&quot;http://www.thedesiadda.com/&quot; rel=&quot;nofollow&quot; target=&quot;_NEW&quot;&gt;http://www.thedesiadda.com/&lt;/a&gt;\n\nBig Boss - Season 4 - 5th Nov 2010 - Ind\n\nVideo\nFormat                           : MPEG-4 Visual\nFormat profile                   : Simple@L1\nFormat settings, BVOP            : No\nFormat settings, QPel            : No\nFormat settings, GMC             : No warppoints\nFormat settings, Matrix          : Default\nCodec ID                         : XVID\nCodec ID/Hint                    : XviD\nDuration                         : 45mn 2s\nBit rate                         : 900 Kbps\nWidth                            : 512 pixels\nHeight                           : 384 pixels\nDisplay aspect ratio             : 4/3\nFrame rate                       : 25.000 fps\nResolution                       : 8 bits\nColorimetry                      : 4:2:0\nScan type                        : Progressive\nBits/(Pixel*Frame)               : 0.234\nStream size                      : 371 MiB\nWriting library                  : Lavc51.54.0\n\nAudio\nFormat                           : MPEG Audio\nFormat version                   : Version 1\nFormat profile                   : Layer 3\nCodec ID                         : 55\nCodec ID/Hint                    : MP3\nDuration                         : 45mn 2s\nBit rate mode                    : Constant\nBit rate                         : 128 Kbps\nChannel(s)                       : 2 channels\nSampling rate                    : 44.1 KHz\nResolution                       : 16 bits\nStream size                      : 41.2 MiB\n\n-------------------------\nPost Information\n-------------------------\nRipped by............: yashpop\n\nPosted on............: 05/11/2010","torrent":{"xt":"urn:btih:468142522a57a3020611e49ed0b68ad90919b5d9","amp;dn":"Big+Boss+-+Season+4+-+5th+Nov+2010+-+Ind","amp;tr":["udp%3A%2F%2Ftracker.openbittorrent.com%3A80","udp%3A%2F%2Fopen.demonii.com%3A1337","udp%3A%2F%2Ftracker.coppersurfer.tk%3A6969","udp%3A%2F%2Fexodus.desync.com%3A6969"],"infoHash":"468142522a57a3020611e49ed0b68ad90919b5d9","infoHashBuffer":{"type":"Buffer","data":[70,129,66,82,42,87,163,2,6,17,228,158,208,182,138,217,9,25,181,217]},"announce":[],"urlList":[]}}